<svg xmlns="http://www.w3.org/2000/svg" viewBox="0 0 512 512">
  <defs>
    <linearGradient id="shieldGradient" x1="0%" y1="0%" x2="100%" y2="100%">
      <stop offset="0%" style="stop-color:#0ea5e9;stop-opacity:1" />
      <stop offset="100%" style="stop-color:#0284c7;stop-opacity:1" />
    </linearGradient>
  </defs>
  
  <!-- Shield Background -->
  <path d="M256,32 C150,32 64,80 64,160 L64,240 C64,360 140,460 256,480 C372,460 448,360 448,240 L448,160 C448,80 362,32 256,32 Z" 
        fill="url(#shieldGradient)" stroke="#0f172a" stroke-width="10"/>

  <!-- Microscope (Research) -->
  <g transform="translate(0, 20)">
      <!-- Base -->
      <path d="M176,400 L336,400 C346,400 356,390 356,380 L356,360 L156,360 L156,380 C156,390 166,400 176,400 Z" 
            fill="none" stroke="white" stroke-width="24" stroke-linecap="round" stroke-linejoin="round"/>
      
      <!-- Arm (Curved & Strong) -->
      <path d="M206,360 C206,240 206,180 270,120 C290,100 320,90 340,90" 
            fill="none" stroke="white" stroke-width="32" stroke-linecap="round" stroke-linejoin="round"/>
            
      <!-- Stage -->
      <line x1="180" y1="280" x2="330" y2="280" stroke="white" stroke-width="20" stroke-linecap="round"/>
      
      <!-- Tube & Eyepiece (Rounded & Thicker) -->
      <path d="M300,60 L352,180 L322,192 L270,72 Z" 
            fill="white" stroke="white" stroke-width="12" stroke-linejoin="round"/>
      <rect x="254" y="40" width="50" height="24" rx="8" transform="rotate(-22 284 60)" fill="white"/>

      <!-- Sample/Slide -->
       <!-- Removed as requested -->
  </g>
</svg>
